<svg xmlns="http://www.w3.org/2000/svg" version="1.1" xmlns:xlink="http://www.w3.org/1999/xlink" xmlns:svgjs="http://svgjs.dev/svgjs" viewBox="0 0 1920 1080" class="overflow-hidden rounded-md drop-shadow-lg transition duration-300" style="overflow: hidden; height: 85vh;"><rect width="1920" height="1080" fill="#bebecf"/><g clip-path="url(&quot;#SvgjsClipPath1273&quot;)"><g transform="matrix(0.27821017993961805,1.1158400852173957,-1.1158400852173957,0.27821017993961805,1288.267388309881,-670.302314112442)"><path d="M0,-1080C6.891305099700683,-984.7838260556372,40.374856347046595,-715.7172975010551,41.3478305982041,-508.70295633382307C42.3208048493616,-301.68861516659103,7.887246108969464,-62.82256195628821,5.83784550694503,162.08604700339237C3.7884449049205955,386.99465596307294,33.23068188539242,602.7482358155786,29.051426986057493,840.7486974242604C24.872172086722568,1078.7491590329423,-14.395779391388277,1370.2135995595268,-19.237683889064527,1590.0888166554832C-24.079588386740777,1809.9640337514397,-3.206280648177421,2065.0148027759137,0,2160L 1920 2160 L 1920 -1080 Z" fill="url(&quot;#SvgjsLinearGradient1269&quot;)"/><path d="M480,-1080C472.5370722828652,-982.1145720297125,446.32361665181185,-696.3074196224286,435.2224336971914,-492.68743217827466C424.1212507425709,-289.0674447341207,395.04030541572837,-90.93257299753665,413.3929022722772,141.7199246649236C431.745499128826,374.3724223273839,529.1041376315759,662.0044914860038,545.3380148364843,903.2275537964869C561.5718920413926,1144.4506161069698,521.6858346411416,1379.5962241605698,510.7961655017275,1589.058298527822C499.9064963623135,1798.5203728950742,485.1326942502879,2064.843049754637,480,2160L 1920 2160 L 1920 -1080 Z" fill="url(&quot;#SvgjsLinearGradient1270&quot;)"/><path d="M960,-1080C962.8222843918354,-975.4628489479433,962.6645477465554,-672.8944286104966,976.9337063510122,-452.7770936876592C991.2028649554691,-232.65975876482187,1060.5670400294705,35.20630296409533,1045.614951626741,240.7040095370239C1030.6628632240115,446.2017161099525,893.2453988180678,561.5194432999255,887.221175934635,780.2091457499123C881.1969530512022,998.8988481998991,997.33981031525,1322.87708186193,1009.4696143261442,1552.8422242369447C1021.5994183370384,1782.8073666119594,968.244935721024,2058.807037372824,960,2160L 1920 2160 L 1920 -1080 Z" fill="url(&quot;#SvgjsLinearGradient1271&quot;)"/><path d="M1440,-1080C1442.0830923673207,-993.4144004149273,1452.2382670865693,-736.4665903012865,1452.4985542039237,-560.4864024895641C1452.7588413212782,-384.5062146778416,1448.3877936224785,-198.25089051788925,1441.561722704127,-24.1188731296657C1434.7356517857756,150.01314425855784,1425.0031864077098,293.20328296733476,1411.542128693815,484.30570183977716C1398.08107097992,675.4081207122196,1365.490903702105,935.6993594028056,1360.795376420758,1122.4956401049885C1356.099849139411,1309.2919208071714,1370.1681944091924,1432.1659927370395,1383.368965005733,1605.0833860528746C1396.5697356022733,1778.0007793687098,1430.5614941676222,2067.5138976754793,1440,2160L 1920 2160 L 1920 -1080 Z" fill="url(&quot;#SvgjsLinearGradient1272&quot;)"/></g></g><defs><linearGradient x1="0.1" y1="0" x2="0" y2="1" id="SvgjsLinearGradient1269"><stop stop-color="#bebecf" offset="0"/><stop stop-color="#bec1cf" offset="0"/></linearGradient><linearGradient x1="0.1" y1="0" x2="0" y2="1" id="SvgjsLinearGradient1270"><stop stop-color="#d0d0dc" offset="0"/><stop stop-color="#d0d2dc" offset="0.25"/></linearGradient><linearGradient x1="0.1" y1="0" x2="0" y2="1" id="SvgjsLinearGradient1271"><stop stop-color="#e2e2ea" offset="0"/><stop stop-color="#e2e3ea" offset="0.5"/></linearGradient><linearGradient x1="0.1" y1="0" x2="0" y2="1" id="SvgjsLinearGradient1272"><stop stop-color="#f4f4f7" offset="0"/><stop stop-color="#f4f4f7" offset="0.75"/></linearGradient><clipPath id="SvgjsClipPath1273"><rect width="1920" height="1080"/></clipPath></defs></svg>